<!--?xml version="1.0" encoding="utf-8"?-->
<!-- Generator: Adobe Illustrator 22.1.0, SVG Export Plug-In . SVG Version: 6.00 Build 0)  -->
<svg version="1.1" id="_x34_" xmlns="http://www.w3.org/2000/svg" xmlns:xlink="http://www.w3.org/1999/xlink" x="0px" y="0px" viewBox="0 0 800 519.1" style="width: 891px;" xml:space="preserve">
<style type="text/css">
	.stblack{fill:#000000;}
	.st0{fill:#FFFFFF;}
</style>
<g>
	<path class="stblack" d="M616.7,506.1l-133.3-82.7c-51.2,1-90.8,7.5-125.3,7.5c-23.8,0-56.9-2.4-58.8-2.7c-20.7-2.9-39-0.2-57.5-1.4
		c-78.3-5.1-104.9-6.1-112.2-8.2c-7.7-2.2-17.1-19.4-28.7-39.7c-6.6-11.4-19.9-29.2-30.1-49.3c-18.2-35.8-34.8-71.4-45.2-93
		c-3.3-6.8-2.6-19-3.5-20.7c-6.7-13.4-0.5-30.6,56-125.9c6.9-11.7,14.7-24.8,16.7-28.8c1.2-4.1,4.4-9.1,12.6-11.9
		c1.9-0.7,3.8-6.7,7.1-7.5c5.5-1.3,13.3-3,23.3-4.9c17.9-3.4,49.2-7.9,76.6-12.3C252,18.4,314,13.5,329.4,13.5
		c6.7,0,85.9-1.9,158.7,1.4c147.2,6.6,167.1,4.4,172.4,6.8c10.7,4.9,21.4,27.3,57.5,58.8c0.5,0.4,52.5,45.9,57.5,53.4
		c3.8,5.6,6.5,15.8,2.7,49.3c-2,18-4.7,48.8-8.2,73.9c-3.6,25.3-6.6,45.2-9.6,62.9c-5.7,34-9.5,39.6-13.7,43.8
		c-3.5,3.5-2.6,9.2-78.7,32.2c-28.5,8.6-51.5,18.3-67.7,22.5L616.7,506.1L616.7,506.1z"></path>
	<path class="st0" d="M729.9,346.1c5.9-9.7,31.1-192.2,27.8-197.1c-3.3-4.9-92.3-92.8-113.6-102.6c-21.3-9.8-301.6-16.4-314.7-16.4
		c-23,0-220.3,25.2-220.3,30.1c0,4.9-78.8,135.3-72.2,148.5c1.4,2.8,5.8,12.1,12.1,25.2c1.9,3.9,3.9,8.2,6.1,12.7
		c3.1,6.5,9.4,18.4,12.9,25.7c4.3,8.9,6.1,13.3,10.7,22.7c5,10,13.1,25.2,18,34.8c17.1,33.4,29.5,56.1,34.2,57.5
		c11.5,3.3,163.1,11.5,171.3,13.1c5.1,1,100.7,0.1,176.4-1.5l100.6,60.7l-19.2-63.2c5-0.3,8.5-0.6,10-0.9
		C586.5,392,726.2,352.1,729.9,346.1z"></path>
</g>
<g font-family="noto" id="svgTXT" font-size="88"><text x="51%" y="48.76%" fill="000000" text-anchor="middle" font-weight="bolder" style="fill: rgb(0, 0, 0);">乾杯!</text></g></svg>
